<?xml version="1.0" encoding="UTF-8" standalone="no"?>
<!-- Created with Inkscape (http://www.inkscape.org/) -->

<svg
   width="120mm"
   height="30mm"
   viewBox="0 0 120 30"
   version="1.1"
   id="svg5"
   inkscape:version="1.1.2 (b8e25be833, 2022-02-05)"
   sodipodi:docname="pixelwide2023.svg"
   xmlns:inkscape="http://www.inkscape.org/namespaces/inkscape"
   xmlns:sodipodi="http://sodipodi.sourceforge.net/DTD/sodipodi-0.dtd"
   xmlns="http://www.w3.org/2000/svg"
   xmlns:svg="http://www.w3.org/2000/svg">
  <sodipodi:namedview
     id="namedview7"
     pagecolor="#ffffff"
     bordercolor="#999999"
     borderopacity="1"
     inkscape:pageshadow="0"
     inkscape:pageopacity="0"
     inkscape:pagecheckerboard="0"
     inkscape:document-units="mm"
     showgrid="true"
     inkscape:snap-bbox="true"
     inkscape:bbox-paths="true"
     inkscape:bbox-nodes="true"
     inkscape:snap-bbox-edge-midpoints="true"
     inkscape:snap-bbox-midpoints="true"
     inkscape:zoom="0.97643585"
     inkscape:cx="354.34995"
     inkscape:cy="140.81826"
     inkscape:window-width="1920"
     inkscape:window-height="1001"
     inkscape:window-x="-9"
     inkscape:window-y="-9"
     inkscape:window-maximized="1"
     inkscape:current-layer="layer1">
    <inkscape:grid
       type="xygrid"
       id="grid824"
       units="mm"
       spacingx="0.99999999"
       spacingy="0.99999999" />
  </sodipodi:namedview>
  <defs
     id="defs2" />
  <g
     inkscape:label="Layer 1"
     inkscape:groupmode="layer"
     id="layer1">
    <g
       aria-label="worldwidepixel"
       id="text3226"
       style="font-size:15.875px;font-family:'Eudoxus Sans';-inkscape-font-specification:'Eudoxus Sans';letter-spacing:-0.926042px;stroke-width:0.264583">
      <path
         d="m 6.4853387,10.888374 h 2.19075 l 1.8097503,5.445125 1.920875,-5.445125 h 1.8415 l 1.905,5.42925 1.80975,-5.42925 h 2.19075 l -2.968625,8.636 h -1.857375 l -2.00025,-5.826125 -2.032,5.826125 H 9.4539637 Z"
         style="-inkscape-font-specification:'Eudoxus Sans Bold'"
         id="path32024" />
      <path
         d="m 24.434659,19.714874 q -1.254125,0 -2.301875,-0.587375 -1.04775,-0.587375 -1.666875,-1.61925 -0.60325,-1.031875 -0.60325,-2.301875 0,-1.27 0.60325,-2.301875 0.60325,-1.031875 1.651,-1.61925 1.04775,-0.587375 2.31775,-0.587375 1.254125,0 2.286,0.587375 1.04775,0.587375 1.651,1.61925 0.619125,1.031875 0.619125,2.301875 0,1.285875 -0.619125,2.31775 -0.60325,1.031875 -1.651,1.61925 -1.04775,0.5715 -2.286,0.5715 z m -2.413,-4.5085 q 0,1.127125 0.66675,1.87325 0.682625,0.73025 1.74625,0.73025 0.682625,0 1.222375,-0.333375 0.53975,-0.333375 0.841375,-0.92075 0.3175,-0.60325 0.3175,-1.349375 0,-0.73025 -0.3175,-1.317625 -0.301625,-0.60325 -0.841375,-0.936625 -0.53975,-0.34925 -1.222375,-0.34925 -0.6985,0 -1.254125,0.34925 -0.53975,0.333375 -0.85725,0.92075 -0.301625,0.587375 -0.301625,1.3335 z"
         style="-inkscape-font-specification:'Eudoxus Sans Bold'"
         id="path32026" />
      <path
         d="m 29.636373,10.888374 h 1.952625 v 1.2065 q 0.3175,-0.6985 0.904875,-1.000125 0.587375,-0.301625 1.42875,-0.301625 h 0.508 v 1.8415 h -0.746125 q -0.889,0 -1.42875,0.555625 -0.53975,0.555625 -0.53975,1.524 v 4.810125 h -2.079625 z"
         style="-inkscape-font-specification:'Eudoxus Sans Bold'"
         id="path32028" />
      <path
         d="m 34.64759,7.506999 h 2.079625 V 19.524374 H 34.64759 Z"
         style="-inkscape-font-specification:'Eudoxus Sans Bold'"
         id="path32030" />
      <path
         d="m 41.738436,19.714874 q -1.23825,0 -2.238375,-0.587375 -0.98425,-0.60325 -1.55575,-1.635125 -0.5715,-1.031875 -0.5715,-2.286 0,-1.254125 0.5715,-2.286 0.5715,-1.031875 1.571625,-1.61925 1.000125,-0.60325 2.206625,-0.60325 0.8255,0 1.508125,0.28575 0.682625,0.269875 1.143,0.777875 v -4.2545 h 2.079625 v 12.017375 h -1.9685 v -0.9525 q -0.47625,0.555625 -1.190625,0.85725 -0.714375,0.28575 -1.55575,0.28575 z m -2.206625,-4.5085 q 0,0.746125 0.301625,1.349375 0.3175,0.587375 0.873125,0.92075 0.555625,0.333375 1.254125,0.333375 0.6985,0 1.23825,-0.333375 0.555625,-0.333375 0.85725,-0.92075 0.3175,-0.60325 0.3175,-1.349375 0,-0.746125 -0.3175,-1.3335 -0.301625,-0.60325 -0.85725,-0.936625 -0.555625,-0.333375 -1.23825,-0.333375 -0.6985,0 -1.254125,0.34925 -0.555625,0.333375 -0.873125,0.936625 -0.301625,0.587375 -0.301625,1.317625 z"
         style="-inkscape-font-specification:'Eudoxus Sans Bold'"
         id="path32032" />
      <path
         d="m 46.670283,10.888374 h 2.19075 l 1.80975,5.445125 1.920875,-5.445125 h 1.8415 l 1.905,5.42925 1.80975,-5.42925 h 2.19075 l -2.968625,8.636 h -1.857375 l -2.00025,-5.826125 -2.032,5.826125 h -1.8415 z"
         style="-inkscape-font-specification:'Eudoxus Sans Bold'"
         id="path32034" />
      <path
         d="m 60.555608,10.888374 h 2.079625 v 8.636 h -2.079625 z m -0.15875,-2.38125 q 0,-0.5715 0.3175,-0.889 0.3175,-0.3175 0.873125,-0.3175 0.5715,0 0.889,0.3175 0.3175,0.3175 0.3175,0.889 0,0.555625 -0.3175,0.873125 -0.301625,0.3175 -0.889,0.3175 -0.555625,0 -0.873125,-0.3175 -0.3175,-0.3175 -0.3175,-0.873125 z"
         style="-inkscape-font-specification:'Eudoxus Sans Bold'"
         id="path32036" />
      <path
         d="m 67.646454,19.714874 q -1.23825,0 -2.238375,-0.587375 -0.98425,-0.60325 -1.55575,-1.635125 -0.5715,-1.031875 -0.5715,-2.286 0,-1.254125 0.5715,-2.286 0.5715,-1.031875 1.571625,-1.61925 1.000125,-0.60325 2.206625,-0.60325 0.8255,0 1.508125,0.28575 0.682625,0.269875 1.143,0.777875 v -4.2545 h 2.079625 v 12.017375 h -1.9685 v -0.9525 q -0.47625,0.555625 -1.190625,0.85725 -0.714375,0.28575 -1.55575,0.28575 z m -2.206625,-4.5085 q 0,0.746125 0.301625,1.349375 0.3175,0.587375 0.873125,0.92075 0.555625,0.333375 1.254125,0.333375 0.6985,0 1.23825,-0.333375 0.555625,-0.333375 0.85725,-0.92075 0.3175,-0.60325 0.3175,-1.349375 0,-0.746125 -0.3175,-1.3335 -0.301625,-0.60325 -0.85725,-0.936625 -0.555625,-0.333375 -1.23825,-0.333375 -0.6985,0 -1.254125,0.34925 -0.555625,0.333375 -0.873125,0.936625 -0.301625,0.587375 -0.301625,1.317625 z"
         style="-inkscape-font-specification:'Eudoxus Sans Bold'"
         id="path32038" />
      <path
         d="m 77.467803,19.714874 q -1.30175,0 -2.31775,-0.60325 -1.000125,-0.60325 -1.571625,-1.635125 -0.555625,-1.031875 -0.555625,-2.286 0,-1.27 0.555625,-2.286 0.5715,-1.031875 1.539875,-1.61925 0.98425,-0.587375 2.19075,-0.587375 1.30175,0 2.25425,0.5715 0.9525,0.555625 1.444625,1.524 0.508,0.968375 0.508,2.12725 0,0.53975 -0.111125,0.873125 h -6.223 q 0.09525,0.9525 0.73025,1.524 0.635,0.5715 1.571625,0.5715 0.6985,0 1.190625,-0.28575 0.508,-0.301625 0.809625,-0.8255 l 1.68275,0.8255 q -0.396875,0.9525 -1.397,1.539875 -1.000125,0.5715 -2.301875,0.5715 z m 1.825625,-5.508625 q -0.07937,-0.79375 -0.619125,-1.285875 -0.53975,-0.508 -1.36525,-0.508 -0.79375,0 -1.349375,0.47625 -0.555625,0.460375 -0.73025,1.317625 z"
         style="-inkscape-font-specification:'Eudoxus Sans Bold'"
         id="path32040" />
      <path
         d="m 82.161504,10.888374 h 1.952625 v 1.016 q 0.47625,-0.5715 1.17475,-0.889 0.714375,-0.3175 1.603375,-0.3175 1.2065,0 2.206625,0.60325 1.000125,0.587375 1.571625,1.61925 0.5715,1.031875 0.5715,2.286 0,1.254125 -0.5715,2.286 -0.5715,1.031875 -1.571625,1.635125 -0.98425,0.587375 -2.2225,0.587375 -0.79375,0 -1.476375,-0.254 -0.682625,-0.269875 -1.158875,-0.762 v 4.0005 h -2.079625 z m 2.079625,4.318 q 0,0.746125 0.301625,1.349375 0.3175,0.587375 0.85725,0.92075 0.555625,0.333375 1.23825,0.333375 1.063625,0 1.74625,-0.73025 0.6985,-0.746125 0.6985,-1.87325 0,-0.73025 -0.3175,-1.317625 -0.3175,-0.60325 -0.873125,-0.936625 -0.555625,-0.34925 -1.254125,-0.34925 -0.682625,0 -1.23825,0.333375 -0.53975,0.333375 -0.85725,0.936625 -0.301625,0.587375 -0.301625,1.3335 z"
         style="-inkscape-font-specification:'Eudoxus Sans Bold'"
         id="path32042" />
      <path
         d="m 91.903471,10.888374 h 2.079625 v 8.636 h -2.079625 z m -0.15875,-2.38125 q 0,-0.5715 0.3175,-0.889 0.3175,-0.3175 0.873125,-0.3175 0.5715,0 0.889,0.3175 0.3175,0.3175 0.3175,0.889 0,0.555625 -0.3175,0.873125 -0.301625,0.3175 -0.889,0.3175 -0.555625,0 -0.873125,-0.3175 -0.3175,-0.3175 -0.3175,-0.873125 z"
         id="path32044" />
      <path
         d="m 97.08403,15.190499 -3.032125,-4.302125 h 2.44475 l 1.825625,2.682875 1.80975,-2.682875 h 2.42888 l -3.016255,4.302125 3.000375,4.333875 h -2.42887 l -1.79388,-2.682875 -1.80975,2.682875 h -2.44475 z"
         id="path32046" />
      <path
         d="m 106.74134,19.714874 q -1.30175,0 -2.31775,-0.60325 -1.00013,-0.60325 -1.57163,-1.635125 -0.55562,-1.031875 -0.55562,-2.286 0,-1.27 0.55562,-2.286 0.5715,-1.031875 1.53988,-1.61925 0.98425,-0.587375 2.19075,-0.587375 1.30175,0 2.25425,0.5715 0.9525,0.555625 1.44462,1.524 0.508,0.968375 0.508,2.12725 0,0.53975 -0.11112,0.873125 h -6.223 q 0.0952,0.9525 0.73025,1.524 0.635,0.5715 1.57162,0.5715 0.6985,0 1.19063,-0.28575 0.508,-0.301625 0.80962,-0.8255 l 1.68275,0.8255 q -0.39687,0.9525 -1.397,1.539875 -1.00012,0.5715 -2.30187,0.5715 z m 1.82562,-5.508625 q -0.0794,-0.79375 -0.61912,-1.285875 -0.53975,-0.508 -1.36525,-0.508 -0.79375,0 -1.34938,0.47625 -0.55562,0.460375 -0.73025,1.317625 z"
         style="-inkscape-font-specification:'Eudoxus Sans Bold'"
         id="path32048" />
      <path
         d="m 111.43503,7.506999 h 2.07963 v 12.017375 h -2.07963 z"
         style="-inkscape-font-specification:'Eudoxus Sans Bold'"
         id="path32050" />
    </g>
  </g>
</svg>
